<mxfile host="app.diagrams.net" modified="2023-08-31T07:32:06.320Z" agent="Mozilla/5.0 (Macintosh; Intel Mac OS X 10_15_7) AppleWebKit/537.36 (KHTML, like Gecko) Chrome/116.0.0.0 Safari/537.36" etag="rc5SY9Nu_UK19MS0Tod_" version="21.6.9" type="github">
  <diagram name="Page-1" id="7wC7hmL37pKosh5_3M5G">
    <mxGraphModel dx="4030" dy="2140" grid="1" gridSize="10" guides="1" tooltips="1" connect="1" arrows="1" fold="1" page="1" pageScale="1" pageWidth="850" pageHeight="1100" math="1" shadow="0">
      <root>
        <mxCell id="0" />
        <mxCell id="1" parent="0" />
        <mxCell id="U5F7xQGnL32-fihAAhYg-54" style="edgeStyle=orthogonalEdgeStyle;rounded=0;orthogonalLoop=1;jettySize=auto;html=1;exitX=1;exitY=0.5;exitDx=0;exitDy=0;entryX=0;entryY=0.5;entryDx=0;entryDy=0;" parent="1" source="4u2AF7FJxZ9QzFyWI-jE-15" target="CZVFG8hrNlgNmazYNYvc-32" edge="1">
          <mxGeometry relative="1" as="geometry" />
        </mxCell>
        <mxCell id="4u2AF7FJxZ9QzFyWI-jE-15" value="&lt;font face=&quot;Helvetica&quot; style=&quot;font-size: 18px;&quot;&gt;Reward&lt;/font&gt;" style="rounded=0;whiteSpace=wrap;html=1;fillColor=#fff2cc;strokeColor=#d6b656;fontFamily=Verdana;fontStyle=0" parent="1" vertex="1">
          <mxGeometry x="-71" y="673" width="90" height="28" as="geometry" />
        </mxCell>
        <mxCell id="CZVFG8hrNlgNmazYNYvc-30" style="edgeStyle=orthogonalEdgeStyle;rounded=0;orthogonalLoop=1;jettySize=auto;html=1;exitX=1;exitY=0.5;exitDx=0;exitDy=0;fontFamily=Verdana;fontStyle=0" parent="1" edge="1">
          <mxGeometry relative="1" as="geometry">
            <mxPoint x="76" y="685" as="targetPoint" />
            <mxPoint x="86" y="683" as="sourcePoint" />
          </mxGeometry>
        </mxCell>
        <mxCell id="U5F7xQGnL32-fihAAhYg-57" style="edgeStyle=orthogonalEdgeStyle;rounded=0;orthogonalLoop=1;jettySize=auto;html=1;exitX=0.5;exitY=0;exitDx=0;exitDy=0;entryX=1;entryY=0.5;entryDx=0;entryDy=0;endArrow=classicThin;endFill=1;" parent="1" source="CZVFG8hrNlgNmazYNYvc-32" target="U5F7xQGnL32-fihAAhYg-36" edge="1">
          <mxGeometry relative="1" as="geometry">
            <mxPoint x="70" y="661" as="sourcePoint" />
            <mxPoint x="292.87" y="869.625" as="targetPoint" />
            <Array as="points">
              <mxPoint x="76" y="650" />
              <mxPoint x="316" y="650" />
              <mxPoint x="316" y="884" />
            </Array>
          </mxGeometry>
        </mxCell>
        <mxCell id="CZVFG8hrNlgNmazYNYvc-32" value="" style="ellipse;whiteSpace=wrap;html=1;aspect=fixed;strokeWidth=2;fontFamily=Verdana;fontStyle=0" parent="1" vertex="1">
          <mxGeometry x="64" y="675" width="24" height="24" as="geometry" />
        </mxCell>
        <mxCell id="CZVFG8hrNlgNmazYNYvc-33" value="" style="endArrow=none;html=1;rounded=0;strokeWidth=2;fontFamily=Verdana;fontStyle=0" parent="1" edge="1">
          <mxGeometry width="50" height="50" relative="1" as="geometry">
            <mxPoint x="67" y="688" as="sourcePoint" />
            <mxPoint x="85.13" y="688" as="targetPoint" />
          </mxGeometry>
        </mxCell>
        <mxCell id="CZVFG8hrNlgNmazYNYvc-34" value="" style="endArrow=none;html=1;rounded=0;strokeWidth=2;fontFamily=Verdana;fontStyle=0" parent="1" edge="1">
          <mxGeometry width="50" height="50" relative="1" as="geometry">
            <mxPoint x="75.82999999999993" y="680" as="sourcePoint" />
            <mxPoint x="75.82999999999993" y="696" as="targetPoint" />
          </mxGeometry>
        </mxCell>
        <mxCell id="U5F7xQGnL32-fihAAhYg-53" style="edgeStyle=orthogonalEdgeStyle;rounded=0;orthogonalLoop=1;jettySize=auto;html=1;exitX=0;exitY=0.5;exitDx=0;exitDy=0;entryX=1;entryY=0.5;entryDx=0;entryDy=0;" parent="1" source="CZVFG8hrNlgNmazYNYvc-40" target="CZVFG8hrNlgNmazYNYvc-32" edge="1">
          <mxGeometry relative="1" as="geometry" />
        </mxCell>
        <mxCell id="CZVFG8hrNlgNmazYNYvc-40" value="&lt;font style=&quot;font-size: 16px;&quot;&gt;KL-div&lt;/font&gt;" style="rounded=0;whiteSpace=wrap;html=1;fillColor=#e1d5e7;strokeColor=#9673a6;fontFamily=Verdana;fontStyle=0" parent="1" vertex="1">
          <mxGeometry x="135.37" y="676" width="80.63" height="22" as="geometry" />
        </mxCell>
        <mxCell id="U5F7xQGnL32-fihAAhYg-55" style="edgeStyle=orthogonalEdgeStyle;rounded=0;orthogonalLoop=1;jettySize=auto;html=1;exitX=0;exitY=0.5;exitDx=0;exitDy=0;entryX=0.5;entryY=1;entryDx=0;entryDy=0;endArrow=classicThin;endFill=1;" parent="1" source="U5F7xQGnL32-fihAAhYg-1" target="U5F7xQGnL32-fihAAhYg-61" edge="1">
          <mxGeometry relative="1" as="geometry">
            <mxPoint x="-60.434999999999945" y="815" as="targetPoint" />
          </mxGeometry>
        </mxCell>
        <mxCell id="U5F7xQGnL32-fihAAhYg-1" value="&lt;span style=&quot;font-size: 14px;&quot;&gt;[&lt;span style=&quot;font-size: 14px;&quot;&gt;&lt;font style=&quot;font-size: 14px;&quot;&gt;Knowledge&lt;/font&gt;&lt;/span&gt;]&amp;nbsp; &amp;nbsp;&lt;/span&gt;" style="rounded=0;whiteSpace=wrap;html=1;fontSize=14;fontFamily=Courier New;fillColor=#d5e8d4;strokeColor=#82b366;fontStyle=0" parent="1" vertex="1">
          <mxGeometry x="59" y="981" width="250" height="25" as="geometry" />
        </mxCell>
        <mxCell id="U5F7xQGnL32-fihAAhYg-2" value="[&lt;span style=&quot;font-size: 14px;&quot;&gt;&lt;font style=&quot;font-size: 14px;&quot;&gt;Context&lt;/font&gt;&lt;/span&gt;]&amp;nbsp; &amp;nbsp;&amp;nbsp;" style="rounded=0;whiteSpace=wrap;html=1;fontSize=14;fontFamily=Courier New;fillColor=#dae8fc;strokeColor=#6c8ebf;fontStyle=0" parent="1" vertex="1">
          <mxGeometry x="309" y="981" width="265" height="25" as="geometry" />
        </mxCell>
        <mxCell id="U5F7xQGnL32-fihAAhYg-3" value="[&lt;span style=&quot;font-size: 14px;&quot;&gt;&lt;font style=&quot;font-size: 14px;&quot;&gt;Response&lt;/font&gt;&lt;/span&gt;]&amp;nbsp; &amp;nbsp;" style="rounded=0;whiteSpace=wrap;html=1;fontSize=14;fontFamily=Courier New;fillColor=#ffe6cc;strokeColor=#d79b00;fontStyle=0" parent="1" vertex="1">
          <mxGeometry x="360" y="783.5" width="165" height="25" as="geometry" />
        </mxCell>
        <mxCell id="U5F7xQGnL32-fihAAhYg-5" value="&lt;i style=&quot;--tw-border-spacing-x: 0; --tw-border-spacing-y: 0; --tw-translate-x: 0; --tw-translate-y: 0; --tw-rotate: 0; --tw-skew-x: 0; --tw-skew-y: 0; --tw-scale-x: 1; --tw-scale-y: 1; --tw-pan-x: ; --tw-pan-y: ; --tw-pinch-zoom: ; --tw-scroll-snap-strictness: proximity; --tw-ordinal: ; --tw-slashed-zero: ; --tw-numeric-figure: ; --tw-numeric-spacing: ; --tw-numeric-fraction: ; --tw-ring-inset: ; --tw-ring-offset-width: 0px; --tw-ring-offset-color: #fff; --tw-ring-color: rgb(59 130 246 / 0.5); --tw-ring-offset-shadow: 0 0 #0000; --tw-ring-shadow: 0 0 #0000; --tw-shadow: 0 0 #0000; --tw-shadow-colored: 0 0 #0000; --tw-blur: ; --tw-brightness: ; --tw-contrast: ; --tw-grayscale: ; --tw-hue-rotate: ; --tw-invert: ; --tw-saturate: ; --tw-sepia: ; --tw-drop-shadow: ; --tw-backdrop-blur: ; --tw-backdrop-brightness: ; --tw-backdrop-contrast: ; --tw-backdrop-grayscale: ; --tw-backdrop-hue-rotate: ; --tw-backdrop-invert: ; --tw-backdrop-opacity: ; --tw-backdrop-saturate: ; --tw-backdrop-sepia: ; border-color: var(--border-color); font-family: &amp;quot;Times New Roman&amp;quot;; font-weight: 700;&quot;&gt;&lt;font style=&quot;font-size: 13px;&quot;&gt;$$(\boldsymbol X)$$&lt;/font&gt;&lt;/i&gt;" style="text;html=1;align=center;verticalAlign=middle;resizable=0;points=[];autosize=1;strokeColor=none;fillColor=none;" parent="1" vertex="1">
          <mxGeometry x="408.75" y="978.5" width="130" height="30" as="geometry" />
        </mxCell>
        <mxCell id="U5F7xQGnL32-fihAAhYg-6" value="&lt;i style=&quot;--tw-border-spacing-x: 0; --tw-border-spacing-y: 0; --tw-translate-x: 0; --tw-translate-y: 0; --tw-rotate: 0; --tw-skew-x: 0; --tw-skew-y: 0; --tw-scale-x: 1; --tw-scale-y: 1; --tw-pan-x: ; --tw-pan-y: ; --tw-pinch-zoom: ; --tw-scroll-snap-strictness: proximity; --tw-ordinal: ; --tw-slashed-zero: ; --tw-numeric-figure: ; --tw-numeric-spacing: ; --tw-numeric-fraction: ; --tw-ring-inset: ; --tw-ring-offset-width: 0px; --tw-ring-offset-color: #fff; --tw-ring-color: rgb(59 130 246 / 0.5); --tw-ring-offset-shadow: 0 0 #0000; --tw-ring-shadow: 0 0 #0000; --tw-shadow: 0 0 #0000; --tw-shadow-colored: 0 0 #0000; --tw-blur: ; --tw-brightness: ; --tw-contrast: ; --tw-grayscale: ; --tw-hue-rotate: ; --tw-invert: ; --tw-saturate: ; --tw-sepia: ; --tw-drop-shadow: ; --tw-backdrop-blur: ; --tw-backdrop-brightness: ; --tw-backdrop-contrast: ; --tw-backdrop-grayscale: ; --tw-backdrop-hue-rotate: ; --tw-backdrop-invert: ; --tw-backdrop-opacity: ; --tw-backdrop-saturate: ; --tw-backdrop-sepia: ; border-color: var(--border-color); font-family: &amp;quot;Times New Roman&amp;quot;; font-weight: 700;&quot;&gt;&lt;font style=&quot;font-size: 13px;&quot;&gt;$$(\boldsymbol&amp;nbsp; Y^{(2)})$$&lt;/font&gt;&lt;/i&gt;" style="text;html=1;align=center;verticalAlign=middle;resizable=0;points=[];autosize=1;strokeColor=none;fillColor=none;" parent="1" vertex="1">
          <mxGeometry x="408.75" y="780" width="170" height="30" as="geometry" />
        </mxCell>
        <mxCell id="U5F7xQGnL32-fihAAhYg-7" value="&lt;font face=&quot;Times New Roman&quot; style=&quot;font-size: 12px;&quot;&gt;Which team won the 2022 World Cup champion?&lt;/font&gt;" style="rounded=0;whiteSpace=wrap;html=1;fontSize=14;fontFamily=Courier New;fillColor=#eeeeee;strokeColor=#36393d;fontStyle=0;" parent="1" vertex="1">
          <mxGeometry x="304" y="956" width="270" height="25" as="geometry" />
        </mxCell>
        <mxCell id="U5F7xQGnL32-fihAAhYg-49" style="edgeStyle=orthogonalEdgeStyle;rounded=0;orthogonalLoop=1;jettySize=auto;html=1;exitX=0.5;exitY=0;exitDx=0;exitDy=0;entryX=1;entryY=0.5;entryDx=0;entryDy=0;endArrow=classicThin;endFill=1;strokeColor=#666666;" parent="1" source="U5F7xQGnL32-fihAAhYg-8" target="U5F7xQGnL32-fihAAhYg-33" edge="1">
          <mxGeometry relative="1" as="geometry" />
        </mxCell>
        <mxCell id="U5F7xQGnL32-fihAAhYg-8" value="&lt;font style=&quot;--tw-border-spacing-x: 0; --tw-border-spacing-y: 0; --tw-translate-x: 0; --tw-translate-y: 0; --tw-rotate: 0; --tw-skew-x: 0; --tw-skew-y: 0; --tw-scale-x: 1; --tw-scale-y: 1; --tw-pan-x: ; --tw-pan-y: ; --tw-pinch-zoom: ; --tw-scroll-snap-strictness: proximity; --tw-ordinal: ; --tw-slashed-zero: ; --tw-numeric-figure: ; --tw-numeric-spacing: ; --tw-numeric-fraction: ; --tw-ring-inset: ; --tw-ring-offset-width: 0px; --tw-ring-offset-color: #fff; --tw-ring-color: rgb(59 130 246 / 0.5); --tw-ring-offset-shadow: 0 0 #0000; --tw-ring-shadow: 0 0 #0000; --tw-shadow: 0 0 #0000; --tw-shadow-colored: 0 0 #0000; --tw-blur: ; --tw-brightness: ; --tw-contrast: ; --tw-grayscale: ; --tw-hue-rotate: ; --tw-invert: ; --tw-saturate: ; --tw-sepia: ; --tw-drop-shadow: ; --tw-backdrop-blur: ; --tw-backdrop-brightness: ; --tw-backdrop-contrast: ; --tw-backdrop-grayscale: ; --tw-backdrop-hue-rotate: ; --tw-backdrop-invert: ; --tw-backdrop-opacity: ; --tw-backdrop-saturate: ; --tw-backdrop-sepia: ; border-color: var(--border-color); color: rgb(51, 51, 51); font-family: &amp;quot;Times New Roman&amp;quot;;&quot;&gt;The champion is&amp;nbsp;&lt;/font&gt;&lt;font style=&quot;--tw-border-spacing-x: 0; --tw-border-spacing-y: 0; --tw-translate-x: 0; --tw-translate-y: 0; --tw-rotate: 0; --tw-skew-x: 0; --tw-skew-y: 0; --tw-scale-x: 1; --tw-scale-y: 1; --tw-pan-x: ; --tw-pan-y: ; --tw-pinch-zoom: ; --tw-scroll-snap-strictness: proximity; --tw-ordinal: ; --tw-slashed-zero: ; --tw-numeric-figure: ; --tw-numeric-spacing: ; --tw-numeric-fraction: ; --tw-ring-inset: ; --tw-ring-offset-width: 0px; --tw-ring-offset-color: #fff; --tw-ring-color: rgb(59 130 246 / 0.5); --tw-ring-offset-shadow: 0 0 #0000; --tw-ring-shadow: 0 0 #0000; --tw-shadow: 0 0 #0000; --tw-shadow-colored: 0 0 #0000; --tw-blur: ; --tw-brightness: ; --tw-contrast: ; --tw-grayscale: ; --tw-hue-rotate: ; --tw-invert: ; --tw-saturate: ; --tw-sepia: ; --tw-drop-shadow: ; --tw-backdrop-blur: ; --tw-backdrop-brightness: ; --tw-backdrop-contrast: ; --tw-backdrop-grayscale: ; --tw-backdrop-hue-rotate: ; --tw-backdrop-invert: ; --tw-backdrop-opacity: ; --tw-backdrop-saturate: ; --tw-backdrop-sepia: ; border-color: var(--border-color); font-family: &amp;quot;Times New Roman&amp;quot;;&quot;&gt;&lt;font style=&quot;--tw-border-spacing-x: 0; --tw-border-spacing-y: 0; --tw-translate-x: 0; --tw-translate-y: 0; --tw-rotate: 0; --tw-skew-x: 0; --tw-skew-y: 0; --tw-scale-x: 1; --tw-scale-y: 1; --tw-pan-x: ; --tw-pan-y: ; --tw-pinch-zoom: ; --tw-scroll-snap-strictness: proximity; --tw-ordinal: ; --tw-slashed-zero: ; --tw-numeric-figure: ; --tw-numeric-spacing: ; --tw-numeric-fraction: ; --tw-ring-inset: ; --tw-ring-offset-width: 0px; --tw-ring-offset-color: #fff; --tw-ring-color: rgb(59 130 246 / 0.5); --tw-ring-offset-shadow: 0 0 #0000; --tw-ring-shadow: 0 0 #0000; --tw-shadow: 0 0 #0000; --tw-shadow-colored: 0 0 #0000; --tw-blur: ; --tw-brightness: ; --tw-contrast: ; --tw-grayscale: ; --tw-hue-rotate: ; --tw-invert: ; --tw-saturate: ; --tw-sepia: ; --tw-drop-shadow: ; --tw-backdrop-blur: ; --tw-backdrop-brightness: ; --tw-backdrop-contrast: ; --tw-backdrop-grayscale: ; --tw-backdrop-hue-rotate: ; --tw-backdrop-invert: ; --tw-backdrop-opacity: ; --tw-backdrop-saturate: ; --tw-backdrop-sepia: ; border-color: var(--border-color);&quot; color=&quot;#b5739d&quot;&gt;France&lt;/font&gt;&lt;font style=&quot;--tw-border-spacing-x: 0; --tw-border-spacing-y: 0; --tw-translate-x: 0; --tw-translate-y: 0; --tw-rotate: 0; --tw-skew-x: 0; --tw-skew-y: 0; --tw-scale-x: 1; --tw-scale-y: 1; --tw-pan-x: ; --tw-pan-y: ; --tw-pinch-zoom: ; --tw-scroll-snap-strictness: proximity; --tw-ordinal: ; --tw-slashed-zero: ; --tw-numeric-figure: ; --tw-numeric-spacing: ; --tw-numeric-fraction: ; --tw-ring-inset: ; --tw-ring-offset-width: 0px; --tw-ring-offset-color: #fff; --tw-ring-color: rgb(59 130 246 / 0.5); --tw-ring-offset-shadow: 0 0 #0000; --tw-ring-shadow: 0 0 #0000; --tw-shadow: 0 0 #0000; --tw-shadow-colored: 0 0 #0000; --tw-blur: ; --tw-brightness: ; --tw-contrast: ; --tw-grayscale: ; --tw-hue-rotate: ; --tw-invert: ; --tw-saturate: ; --tw-sepia: ; --tw-drop-shadow: ; --tw-backdrop-blur: ; --tw-backdrop-brightness: ; --tw-backdrop-contrast: ; --tw-backdrop-grayscale: ; --tw-backdrop-hue-rotate: ; --tw-backdrop-invert: ; --tw-backdrop-opacity: ; --tw-backdrop-saturate: ; --tw-backdrop-sepia: ; border-color: var(--border-color);&quot; color=&quot;#333333&quot;&gt;.&lt;/font&gt;&lt;/font&gt;" style="rounded=0;whiteSpace=wrap;html=1;fontSize=14;fontFamily=Courier New;fillColor=#eeeeee;strokeColor=#36393d;fontStyle=0;" parent="1" vertex="1">
          <mxGeometry x="360" y="758.5" width="165" height="25" as="geometry" />
        </mxCell>
        <mxCell id="U5F7xQGnL32-fihAAhYg-9" value="&lt;font face=&quot;Times New Roman&quot; style=&quot;font-size: 12px;&quot;&gt;&lt;font color=&quot;#00994d&quot;&gt;Argentina&lt;/font&gt; won the 2022 World Cup champion.&lt;/font&gt;" style="rounded=0;whiteSpace=wrap;html=1;fontSize=14;fontFamily=Courier New;fillColor=#eeeeee;strokeColor=#36393d;fontStyle=0;" parent="1" vertex="1">
          <mxGeometry x="59" y="956" width="250" height="25" as="geometry" />
        </mxCell>
        <mxCell id="U5F7xQGnL32-fihAAhYg-12" value="&lt;i style=&quot;--tw-border-spacing-x: 0; --tw-border-spacing-y: 0; --tw-translate-x: 0; --tw-translate-y: 0; --tw-rotate: 0; --tw-skew-x: 0; --tw-skew-y: 0; --tw-scale-x: 1; --tw-scale-y: 1; --tw-pan-x: ; --tw-pan-y: ; --tw-pinch-zoom: ; --tw-scroll-snap-strictness: proximity; --tw-ordinal: ; --tw-slashed-zero: ; --tw-numeric-figure: ; --tw-numeric-spacing: ; --tw-numeric-fraction: ; --tw-ring-inset: ; --tw-ring-offset-width: 0px; --tw-ring-offset-color: #fff; --tw-ring-color: rgb(59 130 246 / 0.5); --tw-ring-offset-shadow: 0 0 #0000; --tw-ring-shadow: 0 0 #0000; --tw-shadow: 0 0 #0000; --tw-shadow-colored: 0 0 #0000; --tw-blur: ; --tw-brightness: ; --tw-contrast: ; --tw-grayscale: ; --tw-hue-rotate: ; --tw-invert: ; --tw-saturate: ; --tw-sepia: ; --tw-drop-shadow: ; --tw-backdrop-blur: ; --tw-backdrop-brightness: ; --tw-backdrop-contrast: ; --tw-backdrop-grayscale: ; --tw-backdrop-hue-rotate: ; --tw-backdrop-invert: ; --tw-backdrop-opacity: ; --tw-backdrop-saturate: ; --tw-backdrop-sepia: ; border-color: var(--border-color); font-family: &amp;quot;Times New Roman&amp;quot;; font-weight: 700;&quot;&gt;&lt;font style=&quot;--tw-border-spacing-x: 0; --tw-border-spacing-y: 0; --tw-translate-x: 0; --tw-translate-y: 0; --tw-rotate: 0; --tw-skew-x: 0; --tw-skew-y: 0; --tw-scale-x: 1; --tw-scale-y: 1; --tw-pan-x: ; --tw-pan-y: ; --tw-pinch-zoom: ; --tw-scroll-snap-strictness: proximity; --tw-ordinal: ; --tw-slashed-zero: ; --tw-numeric-figure: ; --tw-numeric-spacing: ; --tw-numeric-fraction: ; --tw-ring-inset: ; --tw-ring-offset-width: 0px; --tw-ring-offset-color: #fff; --tw-ring-color: rgb(59 130 246 / 0.5); --tw-ring-offset-shadow: 0 0 #0000; --tw-ring-shadow: 0 0 #0000; --tw-shadow: 0 0 #0000; --tw-shadow-colored: 0 0 #0000; --tw-blur: ; --tw-brightness: ; --tw-contrast: ; --tw-grayscale: ; --tw-hue-rotate: ; --tw-invert: ; --tw-saturate: ; --tw-sepia: ; --tw-drop-shadow: ; --tw-backdrop-blur: ; --tw-backdrop-brightness: ; --tw-backdrop-contrast: ; --tw-backdrop-grayscale: ; --tw-backdrop-hue-rotate: ; --tw-backdrop-invert: ; --tw-backdrop-opacity: ; --tw-backdrop-saturate: ; --tw-backdrop-sepia: ; border-color: var(--border-color); font-size: 13px;&quot;&gt;$$(\boldsymbol K)$$&lt;/font&gt;&lt;/i&gt;" style="text;html=1;align=center;verticalAlign=middle;resizable=0;points=[];autosize=1;strokeColor=none;fillColor=none;" parent="1" vertex="1">
          <mxGeometry x="166" y="977.5" width="130" height="30" as="geometry" />
        </mxCell>
        <mxCell id="U5F7xQGnL32-fihAAhYg-24" value="&lt;font style=&quot;font-size: 20px;&quot;&gt;Factual Consistency Datasets&lt;/font&gt;" style="text;html=1;align=center;verticalAlign=middle;resizable=0;points=[];autosize=1;strokeColor=none;fillColor=none;" parent="1" vertex="1">
          <mxGeometry x="-570" y="676" width="290" height="40" as="geometry" />
        </mxCell>
        <mxCell id="U5F7xQGnL32-fihAAhYg-25" value="" style="rounded=0;whiteSpace=wrap;html=1;fillColor=#eeeeee;strokeColor=#36393d;" parent="1" vertex="1">
          <mxGeometry x="-560" y="725.25" width="337" height="150.75" as="geometry" />
        </mxCell>
        <mxCell id="U5F7xQGnL32-fihAAhYg-56" style="edgeStyle=orthogonalEdgeStyle;rounded=0;orthogonalLoop=1;jettySize=auto;html=1;exitX=0;exitY=0.5;exitDx=0;exitDy=0;entryX=1;entryY=0.5;entryDx=0;entryDy=0;endArrow=classicThin;endFill=1;" parent="1" source="U5F7xQGnL32-fihAAhYg-28" target="U5F7xQGnL32-fihAAhYg-61" edge="1">
          <mxGeometry relative="1" as="geometry">
            <mxPoint x="58" y="796" as="targetPoint" />
          </mxGeometry>
        </mxCell>
        <mxCell id="U5F7xQGnL32-fihAAhYg-28" value="[&lt;span style=&quot;font-size: 14px;&quot;&gt;&lt;font style=&quot;font-size: 14px;&quot;&gt;Response&lt;/font&gt;&lt;/span&gt;]&amp;nbsp; &amp;nbsp;" style="rounded=0;whiteSpace=wrap;html=1;fontSize=14;fontFamily=Courier New;fillColor=#ffe6cc;strokeColor=#d79b00;fontStyle=0" parent="1" vertex="1">
          <mxGeometry x="92.87" y="783.5" width="165" height="25" as="geometry" />
        </mxCell>
        <mxCell id="U5F7xQGnL32-fihAAhYg-29" value="&lt;i style=&quot;--tw-border-spacing-x: 0; --tw-border-spacing-y: 0; --tw-translate-x: 0; --tw-translate-y: 0; --tw-rotate: 0; --tw-skew-x: 0; --tw-skew-y: 0; --tw-scale-x: 1; --tw-scale-y: 1; --tw-pan-x: ; --tw-pan-y: ; --tw-pinch-zoom: ; --tw-scroll-snap-strictness: proximity; --tw-ordinal: ; --tw-slashed-zero: ; --tw-numeric-figure: ; --tw-numeric-spacing: ; --tw-numeric-fraction: ; --tw-ring-inset: ; --tw-ring-offset-width: 0px; --tw-ring-offset-color: #fff; --tw-ring-color: rgb(59 130 246 / 0.5); --tw-ring-offset-shadow: 0 0 #0000; --tw-ring-shadow: 0 0 #0000; --tw-shadow: 0 0 #0000; --tw-shadow-colored: 0 0 #0000; --tw-blur: ; --tw-brightness: ; --tw-contrast: ; --tw-grayscale: ; --tw-hue-rotate: ; --tw-invert: ; --tw-saturate: ; --tw-sepia: ; --tw-drop-shadow: ; --tw-backdrop-blur: ; --tw-backdrop-brightness: ; --tw-backdrop-contrast: ; --tw-backdrop-grayscale: ; --tw-backdrop-hue-rotate: ; --tw-backdrop-invert: ; --tw-backdrop-opacity: ; --tw-backdrop-saturate: ; --tw-backdrop-sepia: ; border-color: var(--border-color); font-family: &amp;quot;Times New Roman&amp;quot;; font-weight: 700;&quot;&gt;&lt;font style=&quot;font-size: 13px;&quot;&gt;$$(\boldsymbol&amp;nbsp; Y^{(1)})$$&lt;/font&gt;&lt;/i&gt;" style="text;html=1;align=center;verticalAlign=middle;resizable=0;points=[];autosize=1;strokeColor=none;fillColor=none;" parent="1" vertex="1">
          <mxGeometry x="139" y="781" width="170" height="30" as="geometry" />
        </mxCell>
        <mxCell id="U5F7xQGnL32-fihAAhYg-48" style="edgeStyle=orthogonalEdgeStyle;rounded=0;orthogonalLoop=1;jettySize=auto;html=1;exitX=0.5;exitY=0;exitDx=0;exitDy=0;entryX=0.5;entryY=1;entryDx=0;entryDy=0;endArrow=classicThin;endFill=1;strokeColor=#666666;" parent="1" source="U5F7xQGnL32-fihAAhYg-30" target="U5F7xQGnL32-fihAAhYg-33" edge="1">
          <mxGeometry relative="1" as="geometry" />
        </mxCell>
        <mxCell id="U5F7xQGnL32-fihAAhYg-30" value="&lt;font face=&quot;Times New Roman&quot; style=&quot;font-size: 12px;&quot;&gt;&lt;font style=&quot;font-size: 12px;&quot;&gt;The champion is&amp;nbsp;&lt;/font&gt;&lt;font style=&quot;font-size: 12px;&quot;&gt;&lt;font color=&quot;#00994d&quot;&gt;Argentina&lt;/font&gt;.&lt;/font&gt;&lt;/font&gt;" style="rounded=0;whiteSpace=wrap;html=1;fontSize=14;fontFamily=Courier New;fillColor=#eeeeee;strokeColor=#36393d;fontStyle=0;" parent="1" vertex="1">
          <mxGeometry x="92.87" y="758.5" width="165" height="25" as="geometry" />
        </mxCell>
        <mxCell id="U5F7xQGnL32-fihAAhYg-32" style="edgeStyle=orthogonalEdgeStyle;rounded=0;orthogonalLoop=1;jettySize=auto;html=1;exitX=1;exitY=0.5;exitDx=0;exitDy=0;fontFamily=Verdana;fontStyle=0" parent="1" edge="1">
          <mxGeometry relative="1" as="geometry">
            <mxPoint x="178.37" y="732" as="targetPoint" />
            <mxPoint x="188.37" y="730" as="sourcePoint" />
          </mxGeometry>
        </mxCell>
        <mxCell id="U5F7xQGnL32-fihAAhYg-50" style="edgeStyle=orthogonalEdgeStyle;rounded=0;orthogonalLoop=1;jettySize=auto;html=1;exitX=0.5;exitY=0;exitDx=0;exitDy=0;entryX=0.5;entryY=1;entryDx=0;entryDy=0;strokeColor=#666666;endArrow=classicThin;endFill=1;" parent="1" source="U5F7xQGnL32-fihAAhYg-33" target="CZVFG8hrNlgNmazYNYvc-40" edge="1">
          <mxGeometry relative="1" as="geometry">
            <Array as="points">
              <mxPoint x="175" y="710" />
            </Array>
          </mxGeometry>
        </mxCell>
        <mxCell id="U5F7xQGnL32-fihAAhYg-33" value="" style="ellipse;whiteSpace=wrap;html=1;aspect=fixed;strokeWidth=2;fontFamily=Verdana;fontStyle=0" parent="1" vertex="1">
          <mxGeometry x="163.37" y="719" width="24" height="24" as="geometry" />
        </mxCell>
        <mxCell id="U5F7xQGnL32-fihAAhYg-34" value="" style="endArrow=none;html=1;rounded=0;strokeWidth=2;fontFamily=Verdana;fontStyle=0" parent="1" edge="1">
          <mxGeometry width="50" height="50" relative="1" as="geometry">
            <mxPoint x="168.37" y="731.7700000000001" as="sourcePoint" />
            <mxPoint x="183" y="731.7700000000001" as="targetPoint" />
          </mxGeometry>
        </mxCell>
        <mxCell id="U5F7xQGnL32-fihAAhYg-36" value="" style="rounded=0;whiteSpace=wrap;html=1;shadow=0;glass=0;sketch=0;fillColor=#f5f5f5;fontFamily=Georgia;fontColor=#333333;strokeColor=#666666;opacity=50;strokeWidth=1;" parent="1" vertex="1">
          <mxGeometry x="67.87" y="834" width="220" height="99.25" as="geometry" />
        </mxCell>
        <mxCell id="U5F7xQGnL32-fihAAhYg-37" value="&lt;font style=&quot;font-size: 15px;&quot;&gt;Multi-head Attention&lt;/font&gt;" style="rounded=1;whiteSpace=wrap;html=1;fillColor=#d5e8d4;strokeColor=#82b366;fontSize=15;fontFamily=Verdana;" parent="1" vertex="1">
          <mxGeometry x="77.87" y="893.75" width="200" height="30" as="geometry" />
        </mxCell>
        <mxCell id="U5F7xQGnL32-fihAAhYg-38" value="&lt;font style=&quot;font-size: 15px;&quot;&gt;Feedforward Network&lt;/font&gt;" style="rounded=1;whiteSpace=wrap;html=1;fillColor=#d5e8d4;strokeColor=#82b366;fontSize=15;fontFamily=Verdana;" parent="1" vertex="1">
          <mxGeometry x="77.87" y="863.25" width="200" height="30" as="geometry" />
        </mxCell>
        <mxCell id="U5F7xQGnL32-fihAAhYg-39" value="" style="shape=flexArrow;endArrow=classic;html=1;rounded=0;fontFamily=Georgia;fontSize=15;width=8.64864864864865;endSize=1.9063829787234043;endWidth=9.411539198773243;fillColor=#f5f5f5;strokeColor=#666666;" parent="1" edge="1">
          <mxGeometry width="50" height="50" relative="1" as="geometry">
            <mxPoint x="177.92999999999995" y="827.5" as="sourcePoint" />
            <mxPoint x="177.66999999999985" y="814.5" as="targetPoint" />
          </mxGeometry>
        </mxCell>
        <mxCell id="U5F7xQGnL32-fihAAhYg-40" value="&lt;font style=&quot;font-size: 18px;&quot;&gt;Policy Model&lt;/font&gt;" style="text;html=1;align=center;verticalAlign=middle;resizable=0;points=[];autosize=1;strokeColor=none;fillColor=none;" parent="1" vertex="1">
          <mxGeometry x="62.870000000000005" y="829" width="130" height="40" as="geometry" />
        </mxCell>
        <mxCell id="U5F7xQGnL32-fihAAhYg-41" value="" style="rounded=0;whiteSpace=wrap;html=1;shadow=0;glass=0;sketch=0;fillColor=#f5f5f5;fontFamily=Georgia;fontColor=#333333;strokeColor=#666666;opacity=50;strokeWidth=1;" parent="1" vertex="1">
          <mxGeometry x="336" y="834" width="220" height="99.25" as="geometry" />
        </mxCell>
        <mxCell id="U5F7xQGnL32-fihAAhYg-42" value="&lt;font style=&quot;font-size: 15px;&quot;&gt;Multi-head Attention&lt;/font&gt;" style="rounded=1;whiteSpace=wrap;html=1;fillColor=#e1d5e7;strokeColor=#9673a6;fontSize=15;fontFamily=Verdana;" parent="1" vertex="1">
          <mxGeometry x="346" y="893.75" width="200" height="30" as="geometry" />
        </mxCell>
        <mxCell id="U5F7xQGnL32-fihAAhYg-43" value="&lt;font style=&quot;font-size: 15px;&quot;&gt;Feedforward Network&lt;/font&gt;" style="rounded=1;whiteSpace=wrap;html=1;fillColor=#e1d5e7;strokeColor=#9673a6;fontSize=15;fontFamily=Verdana;" parent="1" vertex="1">
          <mxGeometry x="346" y="863.25" width="200" height="30" as="geometry" />
        </mxCell>
        <mxCell id="U5F7xQGnL32-fihAAhYg-44" value="&lt;font style=&quot;font-size: 18px;&quot;&gt;Reference Model&lt;/font&gt;" style="text;html=1;align=center;verticalAlign=middle;resizable=0;points=[];autosize=1;strokeColor=none;fillColor=none;" parent="1" vertex="1">
          <mxGeometry x="331" y="829" width="160" height="40" as="geometry" />
        </mxCell>
        <mxCell id="U5F7xQGnL32-fihAAhYg-45" value="" style="shape=flexArrow;endArrow=classic;html=1;rounded=0;fontFamily=Georgia;fontSize=15;width=8.64864864864865;endSize=1.9063829787234043;endWidth=9.411539198773243;fillColor=#f5f5f5;strokeColor=#666666;" parent="1" edge="1">
          <mxGeometry width="50" height="50" relative="1" as="geometry">
            <mxPoint x="177.93999999999994" y="950" as="sourcePoint" />
            <mxPoint x="177.67999999999984" y="937" as="targetPoint" />
          </mxGeometry>
        </mxCell>
        <mxCell id="U5F7xQGnL32-fihAAhYg-46" value="" style="shape=flexArrow;endArrow=classic;html=1;rounded=0;fontFamily=Georgia;fontSize=15;width=8.64864864864865;endSize=1.9063829787234043;endWidth=9.411539198773243;fillColor=#f5f5f5;strokeColor=#666666;" parent="1" edge="1">
          <mxGeometry width="50" height="50" relative="1" as="geometry">
            <mxPoint x="450.13999999999993" y="950.25" as="sourcePoint" />
            <mxPoint x="449.8799999999998" y="937.25" as="targetPoint" />
          </mxGeometry>
        </mxCell>
        <mxCell id="U5F7xQGnL32-fihAAhYg-47" value="" style="shape=flexArrow;endArrow=classic;html=1;rounded=0;fontFamily=Georgia;fontSize=15;width=8.64864864864865;endSize=1.9063829787234043;endWidth=9.411539198773243;fillColor=#f5f5f5;strokeColor=#666666;" parent="1" edge="1">
          <mxGeometry width="50" height="50" relative="1" as="geometry">
            <mxPoint x="448.25999999999993" y="826.5" as="sourcePoint" />
            <mxPoint x="447.99999999999983" y="813.5" as="targetPoint" />
          </mxGeometry>
        </mxCell>
        <mxCell id="U5F7xQGnL32-fihAAhYg-59" value="" style="shape=flexArrow;endArrow=classic;html=1;rounded=0;fontFamily=Georgia;fontSize=15;width=8;endSize=4.013333333333333;endWidth=9.411539198773243;fillColor=#f5f5f5;strokeColor=#666666;" parent="1" edge="1">
          <mxGeometry width="50" height="50" relative="1" as="geometry">
            <mxPoint x="-180.88" y="802.73" as="sourcePoint" />
            <mxPoint x="-129.01" y="802.35" as="targetPoint" />
          </mxGeometry>
        </mxCell>
        <mxCell id="U5F7xQGnL32-fihAAhYg-60" value="&lt;font color=&quot;#666666&quot;&gt;Training&lt;/font&gt;" style="text;html=1;align=center;verticalAlign=middle;resizable=0;points=[];autosize=1;strokeColor=none;fillColor=none;" parent="1" vertex="1">
          <mxGeometry x="-194.13" y="766" width="70" height="30" as="geometry" />
        </mxCell>
        <mxCell id="U5F7xQGnL32-fihAAhYg-62" style="edgeStyle=orthogonalEdgeStyle;rounded=0;orthogonalLoop=1;jettySize=auto;html=1;exitX=0.5;exitY=0;exitDx=0;exitDy=0;entryX=0.5;entryY=1;entryDx=0;entryDy=0;" parent="1" source="U5F7xQGnL32-fihAAhYg-61" target="4u2AF7FJxZ9QzFyWI-jE-15" edge="1">
          <mxGeometry relative="1" as="geometry" />
        </mxCell>
        <mxCell id="U5F7xQGnL32-fihAAhYg-61" value="&lt;font style=&quot;font-size: 17px;&quot;&gt;Factual Consistency&lt;br&gt;Reward Model&lt;/font&gt;" style="rounded=1;whiteSpace=wrap;html=1;fillColor=#fff2cc;strokeColor=#d6b656;" parent="1" vertex="1">
          <mxGeometry x="-110" y="764" width="166.87" height="65" as="geometry" />
        </mxCell>
        <mxCell id="pf3rKg4Mg2yvIvD8o-Fc-1" value="&lt;font color=&quot;#666666&quot; style=&quot;font-size: 14px;&quot;&gt;Policy Training&lt;/font&gt;" style="text;html=1;align=center;verticalAlign=middle;resizable=0;points=[];autosize=1;strokeColor=none;fillColor=none;" parent="1" vertex="1">
          <mxGeometry x="147.87" y="620" width="110" height="30" as="geometry" />
        </mxCell>
        <mxCell id="pf3rKg4Mg2yvIvD8o-Fc-5" value="" style="rounded=0;whiteSpace=wrap;html=1;fillColor=#eeeeee;strokeColor=#36393d;" parent="1" vertex="1">
          <mxGeometry x="-550" y="735.25" width="337" height="150.75" as="geometry" />
        </mxCell>
        <mxCell id="pf3rKg4Mg2yvIvD8o-Fc-6" value="" style="rounded=0;whiteSpace=wrap;html=1;fillColor=#eeeeee;strokeColor=#36393d;" parent="1" vertex="1">
          <mxGeometry x="-540" y="745.25" width="337" height="150.75" as="geometry" />
        </mxCell>
        <mxCell id="pf3rKg4Mg2yvIvD8o-Fc-4" value="&lt;font style=&quot;font-size: 15px;&quot;&gt;$$(\boldsymbol K, \boldsymbol Y)$$&lt;/font&gt;" style="text;html=1;align=center;verticalAlign=middle;resizable=0;points=[];autosize=1;strokeColor=none;fillColor=none;" parent="1" vertex="1">
          <mxGeometry x="-542" y="753.25" width="260" height="30" as="geometry" />
        </mxCell>
        <mxCell id="pf3rKg4Mg2yvIvD8o-Fc-7" value="&lt;font style=&quot;font-size: 18px;&quot;&gt;Pairs Set&lt;/font&gt;" style="text;html=1;align=center;verticalAlign=middle;resizable=0;points=[];autosize=1;strokeColor=none;fillColor=none;fontFamily=Times New Roman;" parent="1" vertex="1">
          <mxGeometry x="-392.13" y="748.25" width="90" height="40" as="geometry" />
        </mxCell>
        <mxCell id="U5F7xQGnL32-fihAAhYg-63" value="&lt;font size=&quot;1&quot;&gt;&lt;span style=&quot;font-size: 16px;&quot;&gt;&lt;font style=&quot;font-style: italic;&quot; face=&quot;Georgia&quot;&gt;Positive Samples&lt;/font&gt;&lt;font face=&quot;Georgia&quot;&gt; (+)&lt;/font&gt;&lt;font style=&quot;font-style: italic;&quot; face=&quot;Georgia&quot;&gt;:&lt;/font&gt;&lt;/span&gt;&lt;/font&gt;" style="text;html=1;align=center;verticalAlign=middle;resizable=0;points=[];autosize=1;strokeColor=none;fillColor=none;" parent="1" vertex="1">
          <mxGeometry x="-530" y="781.63" width="180" height="30" as="geometry" />
        </mxCell>
        <mxCell id="U5F7xQGnL32-fihAAhYg-64" value="&lt;font size=&quot;1&quot; face=&quot;Georgia&quot;&gt;&lt;i style=&quot;font-size: 16px;&quot;&gt;Negative Samples&lt;/i&gt;&lt;span style=&quot;font-size: 16px;&quot;&gt; (-)&lt;/span&gt;&lt;i style=&quot;font-size: 16px;&quot;&gt;:&lt;/i&gt;&lt;/font&gt;" style="text;html=1;align=center;verticalAlign=middle;resizable=0;points=[];autosize=1;strokeColor=none;fillColor=none;" parent="1" vertex="1">
          <mxGeometry x="-528.13" y="829.0699999999999" width="180" height="30" as="geometry" />
        </mxCell>
        <mxCell id="U5F7xQGnL32-fihAAhYg-65" value="&lt;font face=&quot;Times New Roman&quot; style=&quot;font-size: 15px;&quot;&gt;( [Knowledge]，[Consistent&amp;nbsp;&lt;span style=&quot;--tw-border-spacing-x: 0; --tw-border-spacing-y: 0; --tw-translate-x: 0; --tw-translate-y: 0; --tw-rotate: 0; --tw-skew-x: 0; --tw-skew-y: 0; --tw-scale-x: 1; --tw-scale-y: 1; --tw-pan-x: ; --tw-pan-y: ; --tw-pinch-zoom: ; --tw-scroll-snap-strictness: proximity; --tw-ordinal: ; --tw-slashed-zero: ; --tw-numeric-figure: ; --tw-numeric-spacing: ; --tw-numeric-fraction: ; --tw-ring-inset: ; --tw-ring-offset-width: 0px; --tw-ring-offset-color: #fff; --tw-ring-color: rgb(59 130 246 / 0.5); --tw-ring-offset-shadow: 0 0 #0000; --tw-ring-shadow: 0 0 #0000; --tw-shadow: 0 0 #0000; --tw-shadow-colored: 0 0 #0000; --tw-blur: ; --tw-brightness: ; --tw-contrast: ; --tw-grayscale: ; --tw-hue-rotate: ; --tw-invert: ; --tw-saturate: ; --tw-sepia: ; --tw-drop-shadow: ; --tw-backdrop-blur: ; --tw-backdrop-brightness: ; --tw-backdrop-contrast: ; --tw-backdrop-grayscale: ; --tw-backdrop-hue-rotate: ; --tw-backdrop-invert: ; --tw-backdrop-opacity: ; --tw-backdrop-saturate: ; --tw-backdrop-sepia: ; border-color: var(--border-color);&quot;&gt;Response&lt;/span&gt;] )&amp;nbsp;&lt;/font&gt;" style="text;html=1;align=center;verticalAlign=middle;resizable=0;points=[];autosize=1;strokeColor=none;fillColor=none;" parent="1" vertex="1">
          <mxGeometry x="-512.5" y="803.0699999999999" width="270" height="30" as="geometry" />
        </mxCell>
        <mxCell id="U5F7xQGnL32-fihAAhYg-66" value="&lt;font face=&quot;Lucida Console&quot; style=&quot;font-size: 15px;&quot;&gt;( [Knowledge]，[Inconsistent&amp;nbsp;&lt;span style=&quot;--tw-border-spacing-x: 0; --tw-border-spacing-y: 0; --tw-translate-x: 0; --tw-translate-y: 0; --tw-rotate: 0; --tw-skew-x: 0; --tw-skew-y: 0; --tw-scale-x: 1; --tw-scale-y: 1; --tw-pan-x: ; --tw-pan-y: ; --tw-pinch-zoom: ; --tw-scroll-snap-strictness: proximity; --tw-ordinal: ; --tw-slashed-zero: ; --tw-numeric-figure: ; --tw-numeric-spacing: ; --tw-numeric-fraction: ; --tw-ring-inset: ; --tw-ring-offset-width: 0px; --tw-ring-offset-color: #fff; --tw-ring-color: rgb(59 130 246 / 0.5); --tw-ring-offset-shadow: 0 0 #0000; --tw-ring-shadow: 0 0 #0000; --tw-shadow: 0 0 #0000; --tw-shadow-colored: 0 0 #0000; --tw-blur: ; --tw-brightness: ; --tw-contrast: ; --tw-grayscale: ; --tw-hue-rotate: ; --tw-invert: ; --tw-saturate: ; --tw-sepia: ; --tw-drop-shadow: ; --tw-backdrop-blur: ; --tw-backdrop-brightness: ; --tw-backdrop-contrast: ; --tw-backdrop-grayscale: ; --tw-backdrop-hue-rotate: ; --tw-backdrop-invert: ; --tw-backdrop-opacity: ; --tw-backdrop-saturate: ; --tw-backdrop-sepia: ; border-color: var(--border-color);&quot;&gt;Response&lt;/span&gt;] )&amp;nbsp;&lt;/font&gt;" style="text;html=1;align=center;verticalAlign=middle;resizable=0;points=[];autosize=1;strokeColor=none;fillColor=none;" parent="1" vertex="1">
          <mxGeometry x="-514" y="855.44" width="280" height="30" as="geometry" />
        </mxCell>
        <mxCell id="pf3rKg4Mg2yvIvD8o-Fc-9" value="" style="rounded=0;whiteSpace=wrap;html=1;gradientColor=none;fillColor=none;strokeColor=#00994D;strokeWidth=1.5;dashed=1;" parent="1" vertex="1">
          <mxGeometry x="190.5" y="763" width="53" height="16" as="geometry" />
        </mxCell>
        <mxCell id="pf3rKg4Mg2yvIvD8o-Fc-10" value="" style="rounded=0;whiteSpace=wrap;html=1;gradientColor=none;fillColor=none;strokeColor=#00994D;strokeWidth=1.5;dashed=1;" parent="1" vertex="1">
          <mxGeometry x="71" y="961.5" width="51" height="16" as="geometry" />
        </mxCell>
        <mxCell id="pf3rKg4Mg2yvIvD8o-Fc-11" value="" style="rounded=0;whiteSpace=wrap;html=1;gradientColor=none;fillColor=none;strokeColor=#B5739D;strokeWidth=1.5;dashed=1;" parent="1" vertex="1">
          <mxGeometry x="469.25" y="763" width="43" height="16" as="geometry" />
        </mxCell>
      </root>
    </mxGraphModel>
  </diagram>
</mxfile>
